<?xml version="1.0" encoding="UTF-8" standalone="no"?>
<!-- Created with Inkscape (http://www.inkscape.org/) -->

<svg
   width="15.484329mm"
   height="15.484333mm"
   viewBox="0 0 15.484329 15.484332"
   version="1.1"
   id="svg5"
   inkscape:version="1.2.2 (b0a8486541, 2022-12-01)"
   sodipodi:docname="favicon-dark.svg"
   inkscape:export-filename="favicon.svg"
   inkscape:export-xdpi="3.0539608"
   inkscape:export-ydpi="3.0539608"
   xmlns:inkscape="http://www.inkscape.org/namespaces/inkscape"
   xmlns:sodipodi="http://sodipodi.sourceforge.net/DTD/sodipodi-0.dtd"
   xmlns="http://www.w3.org/2000/svg"
   xmlns:svg="http://www.w3.org/2000/svg">
  <sodipodi:namedview
     id="namedview7"
     pagecolor="#ffffff"
     bordercolor="#000000"
     borderopacity="0.25"
     inkscape:showpageshadow="2"
     inkscape:pageopacity="0"
     inkscape:pagecheckerboard="0"
     inkscape:deskcolor="#d1d1d1"
     inkscape:document-units="mm"
     showgrid="false"
     showguides="true"
     inkscape:zoom="5.6568544"
     inkscape:cx="30.317202"
     inkscape:cy="28.814601"
     inkscape:window-width="975"
     inkscape:window-height="1007"
     inkscape:window-x="0"
     inkscape:window-y="0"
     inkscape:window-maximized="0"
     inkscape:current-layer="layer1" />
  <defs
     id="defs2" />
  <g
     inkscape:label="Layer 1"
     inkscape:groupmode="layer"
     id="layer1"
     transform="translate(-169.67755,-122.85139)">
    <path
       id="rect1828"
       style="fill:#ffffff;fill-opacity:1;stroke:none;stroke-width:0.264583;stroke-opacity:1"
       d="m 127.69924,164.58371 c 0,-0.12825 -0.007,-0.25506 -0.0192,-0.37989 -0.0126,-0.12483 -0.0329,-0.24634 -0.0575,-0.36713 -0.0246,-0.12078 -0.0534,-0.23822 -0.0894,-0.35435 -0.036,-0.11613 -0.0778,-0.23072 -0.1245,-0.34159 -0.0467,-0.11086 -0.0995,-0.22063 -0.15643,-0.32562 -0.0569,-0.10499 -0.11872,-0.20478 -0.18516,-0.30328 -0.0664,-0.0985 -0.13852,-0.19591 -0.21389,-0.28731 -0.0754,-0.0914 -0.15255,-0.17809 -0.23624,-0.26178 -0.0837,-0.0837 -0.17356,-0.16406 -0.26496,-0.23943 -0.0914,-0.0754 -0.18563,-0.14426 -0.28413,-0.2107 -0.0985,-0.0664 -0.20148,-0.12826 -0.30647,-0.18516 -0.10499,-0.0569 -0.21156,-0.10969 -0.32243,-0.15642 -0.11086,-0.0467 -0.22546,-0.0885 -0.34159,-0.12451 -0.11612,-0.036 -0.23357,-0.0648 -0.35435,-0.0894 -0.12078,-0.0246 -0.24549,-0.0449 -0.37032,-0.0575 -0.12482,-0.0126 -0.25164,-0.0191 -0.37989,-0.0191 h -21.55505 c -0.12826,0 -0.25507,0.007 -0.37989,0.0191 -0.12483,0.0126 -0.24954,0.0329 -0.37032,0.0575 -0.12078,0.0246 -0.23823,0.0534 -0.35436,0.0894 -0.11613,0.036 -0.23072,0.0778 -0.34158,0.12451 -0.11087,0.0467 -0.21745,0.0995 -0.32244,0.15642 -0.10498,0.0569 -0.20796,0.11873 -0.30646,0.18516 -0.0985,0.0664 -0.19273,0.13533 -0.28413,0.2107 -0.0914,0.0754 -0.181276,0.15574 -0.264967,0.23943 -0.08369,0.0837 -0.160868,0.17037 -0.236237,0.26178 -0.07537,0.0914 -0.147454,0.18881 -0.21389,0.28731 -0.06644,0.0985 -0.128267,0.19829 -0.185159,0.30328 -0.05689,0.10499 -0.109691,0.21476 -0.156427,0.32562 -0.04674,0.11087 -0.08854,0.22546 -0.124504,0.34159 -0.03597,0.11613 -0.0648,0.23357 -0.08939,0.35435 -0.02459,0.12079 -0.04486,0.2423 -0.05746,0.36713 -0.0126,0.12483 -0.01915,0.25164 -0.01915,0.37989 v 21.55824 c 0,0.12825 0.0066,0.25507 0.01915,0.37989 0.0126,0.12483 0.03287,0.24954 0.05746,0.37032 0.02459,0.12078 0.05342,0.23823 0.08939,0.35436 0.03597,0.11613 0.07777,0.23072 0.124504,0.34158 0.04674,0.11087 0.09953,0.21745 0.156427,0.32243 0.05689,0.10499 0.118723,0.20797 0.185159,0.30647 0.06644,0.0985 0.138521,0.19273 0.21389,0.28413 0.07537,0.0914 0.152546,0.17808 0.236237,0.26177 0.08369,0.0837 0.173568,0.16406 0.264967,0.23943 0.0914,0.0754 0.18562,0.14746 0.28413,0.21389 0.0985,0.0664 0.20148,0.12827 0.30646,0.18516 0.10499,0.0569 0.21157,0.10969 0.32244,0.15643 0.11086,0.0467 0.22545,0.0885 0.34158,0.1245 0.11613,0.036 0.23358,0.0648 0.35436,0.0894 0.12078,0.0246 0.24549,0.0449 0.37032,0.0575 0.12482,0.0126 0.25163,0.0192 0.37989,0.0192 h 10.77752 c 8.02359,0 14.4839,-6.4603 14.4839,-14.48389 z"
       transform="matrix(0.1618736,0,0,0.16187363,164.49074,107.60429)" />
    <rect
       style="display:inline;fill:#ffffff;fill-opacity:1;stroke:none;stroke-width:0.225305;stroke-opacity:1"
       id="rect8063-47-0-7-8-8-15"
       width="28.966064"
       height="28.966064"
       x="65.387566"
       y="160.88068"
       ry="3.7041647"
       clip-path="none"
       transform="matrix(0.1618736,0,0,0.16187363,164.49074,107.60429)" />
    <path
       id="path2456"
       clip-path="none"
       style="display:inline;fill:#5d8fff;fill-opacity:1;stroke:none;stroke-width:0.225305;stroke-opacity:1"
       d="m 32.042339,164.58371 v 10.78072 c 0,0.25073 0.0067,0.49948 0.01916,0.74702 0.01247,0.24753 0.03283,0.49341 0.05746,0.73744 0.02463,0.24403 0.05288,0.48445 0.08939,0.72467 0.0365,0.24023 0.07962,0.47897 0.127696,0.7151 0.04807,0.23613 0.103466,0.4706 0.162812,0.70233 0.05935,0.23172 0.121225,0.46252 0.191543,0.68955 0.07032,0.22703 0.14886,0.45157 0.229853,0.6736 0.08099,0.22203 0.167216,0.4409 0.258584,0.65763 0.09137,0.21674 0.185871,0.43053 0.287315,0.64167 0.101444,0.21114 0.208018,0.42046 0.31924,0.62571 0.111221,0.20525 0.22727,0.4075 0.34797,0.60656 0.120701,0.19905 0.246823,0.39483 0.376703,0.5874 0.12988,0.19256 0.26348,0.37928 0.402242,0.56505 0.138761,0.18578 0.283629,0.37041 0.430973,0.54909 0.147344,0.17869 0.297692,0.35226 0.45332,0.52355 0.155628,0.1713 0.315246,0.34079 0.478859,0.5044 0.163613,0.16362 0.329907,0.32323 0.501206,0.47886 0.171299,0.15563 0.348059,0.30598 0.526745,0.45332 0.178686,0.14735 0.360124,0.28902 0.545899,0.42778 0.185775,0.13876 0.375682,0.27556 0.568246,0.40544 0.192565,0.12988 0.388345,0.256 0.587401,0.3767 0.199056,0.1207 0.401307,0.23356 0.606555,0.34478 0.205248,0.11122 0.414568,0.21779 0.625709,0.31924 0.211141,0.10144 0.424935,0.19914 0.641671,0.2905 0.216736,0.0914 0.435601,0.1776 0.657633,0.25859 0.222032,0.081 0.446567,0.15634 0.673596,0.22666 0.227029,0.0703 0.457829,0.13539 0.689557,0.19473 0.231727,0.0594 0.463007,0.11474 0.699134,0.16282 0.236127,0.0481 0.474869,0.088 0.715096,0.1245 0.240228,0.0365 0.483836,0.0679 0.727866,0.0926 0.24403,0.0246 0.48991,0.045 0.737443,0.0575 0.247533,0.0125 0.496283,0.016 0.74702,0.016 h 10.841371 c 2.022097,-0.0342 3.642521,-1.67262 3.642521,-3.70317 v -21.55824 c 0,-2.0521 -1.654264,-3.70317 -3.706369,-3.70317 H 35.745516 c -2.052105,0 -3.703177,1.65107 -3.703177,3.70317 z"
       transform="matrix(0.1618736,0,0,0.16187363,164.49074,107.60429)" />
    <rect
       style="display:inline;fill:#ffffff;fill-opacity:1;stroke:none;stroke-width:0.225305;stroke-opacity:1"
       id="rect8063-47-0-7-8-8-5"
       width="28.966064"
       height="28.966064"
       x="98.732201"
       y="127.53604"
       ry="3.7041647"
       clip-path="none"
       transform="matrix(0.1618736,0,0,0.16187363,164.49074,107.60429)" />
    <rect
       style="display:inline;fill:#ffffff;fill-opacity:1;stroke:none;stroke-width:0.225305;stroke-opacity:1"
       id="rect8063-47-0-7-8-8-1"
       width="28.966064"
       height="28.966064"
       x="32.042923"
       y="127.53604"
       ry="3.7041647"
       inkscape:label="rect8063-47-0-7-8-8-1"
       clip-path="none"
       transform="matrix(0.1618736,0,0,0.16187363,164.49074,107.60429)" />
    <rect
       style="display:inline;fill:#5d8fff;fill-opacity:1;stroke:none;stroke-width:0.225305;stroke-opacity:1"
       id="rect8063-47-0-7-8-8"
       width="28.966064"
       height="28.966064"
       x="65.387566"
       y="127.53604"
       ry="3.7041647"
       clip-path="none"
       transform="matrix(0.1618736,0,0,0.16187363,164.49074,107.60429)" />
    <path
       id="path2473"
       clip-path="none"
       style="display:inline;fill:#ffffff;fill-opacity:1;stroke:none;stroke-width:0.225305;stroke-opacity:1"
       d="m 127.69924,119.45285 v -10.77752 c 0,-0.50148 -0.0273,-0.99641 -0.0766,-1.48447 -0.0493,-0.48805 -0.12094,-0.9707 -0.21708,-1.44296 -0.0962,-0.47225 -0.21692,-0.93463 -0.35755,-1.38869 -0.14064,-0.45406 -0.30251,-0.89775 -0.48525,-1.33123 -0.18273,-0.43347 -0.38411,-0.85688 -0.60655,-1.26738 -0.22244,-0.41049 -0.46491,-0.80882 -0.72467,-1.19395 -0.25977,-0.38513 -0.53853,-0.756775 -0.83322,-1.114147 -0.29469,-0.357373 -0.60495,-0.700726 -0.93218,-1.027951 -0.32722,-0.327226 -0.67058,-0.640683 -1.02795,-0.935371 -0.35737,-0.294689 -0.72902,-0.570262 -1.11415,-0.830023 -0.38512,-0.25976 -0.78345,-0.50223 -1.19395,-0.724673 -0.4105,-0.222443 -0.83391,-0.427012 -1.26738,-0.609747 -0.43347,-0.182735 -0.87717,-0.344607 -1.33123,-0.485244 -0.45406,-0.140637 -0.91644,-0.258208 -1.38869,-0.354356 -0.47225,-0.09615 -0.9549,-0.171006 -1.44296,-0.220275 -0.48806,-0.04927 -0.98299,-0.07343 -1.48447,-0.07343 h -10.77752 c -2.0521,0 -3.706368,1.651071 -3.706368,3.703177 v 21.55823 c 0,2.0521 1.654268,3.70317 3.706368,3.70317 h 21.55505 c 2.0521,0 3.70637,-1.65107 3.70637,-3.70317 z"
       inkscape:export-filename="favicon.svg"
       inkscape:export-xdpi="52.491791"
       inkscape:export-ydpi="52.491791"
       transform="matrix(0.1618736,0,0,0.16187363,164.49074,107.60429)" />
    <rect
       style="display:inline;fill:#ffffff;fill-opacity:1;stroke:none;stroke-width:0.225305;stroke-opacity:1"
       id="rect8063-47-0-7-8-8-9"
       width="28.966064"
       height="28.966064"
       x="65.387558"
       y="94.191406"
       ry="3.7041647"
       clip-path="none"
       transform="matrix(0.1618736,0,0,0.16187363,164.49074,107.60429)" />
    <path
       id="rect8063-47-0-7-8-8-8"
       clip-path="none"
       style="display:inline;fill:#ffffff;fill-opacity:1;stroke:none;stroke-width:0.225305;stroke-opacity:1"
       d="m 46.526231,94.191438 c -0.501474,0 -0.996404,0.02416 -1.484463,0.07343 -0.488059,0.04927 -0.970708,0.124127 -1.442962,0.220275 -0.472254,0.09615 -0.934634,0.213719 -1.388691,0.354356 -0.454058,0.140637 -0.897757,0.302509 -1.331229,0.485244 -0.433472,0.182735 -0.856885,0.387304 -1.26738,0.609747 -0.410496,0.222443 -0.808826,0.464913 -1.193956,0.724673 -0.385129,0.259761 -0.756773,0.535334 -1.114145,0.830023 -0.357373,0.294688 -0.700726,0.608145 -1.027951,0.935371 -0.327226,0.327225 -0.637491,0.670578 -0.932179,1.027951 -0.294688,0.357372 -0.573454,0.729012 -0.833215,1.114142 -0.259761,0.38514 -0.502231,0.78347 -0.724673,1.19395 -0.222443,0.4105 -0.42382,0.83392 -0.606555,1.26739 -0.182735,0.43348 -0.3478,0.87717 -0.488437,1.33123 -0.140636,0.45406 -0.258207,0.91644 -0.354355,1.38869 -0.09615,0.47226 -0.167814,0.95491 -0.217083,1.44296 -0.04927,0.48806 -0.07662,0.98299 -0.07662,1.48447 v 10.77752 c 0,2.05209 1.651072,3.70317 3.703177,3.70317 h 21.558238 c 2.052105,0 3.706369,-1.65108 3.706369,-3.70317 V 97.894615 c 0,-2.052106 -1.654264,-3.703177 -3.706369,-3.703177 z"
       transform="matrix(0.1618736,0,0,0.16187363,164.49074,107.60429)" />
  </g>
</svg>
