<svg xmlns="http://www.w3.org/2000/svg" version="1.1" xmlns:xlink="http://www.w3.org/1999/xlink" xmlns:svgjs="http://svgjs.com/svgjs" width="15.484329mm" height="15.484333mm"><svg width="15.484329mm" height="15.484333mm" viewBox="0 0 15.484329 15.484332" version="1.1" id="SvgjsSvg1013" inkscape:version="1.2.2 (b0a8486541, 2022-12-01)" sodipodi:docname="favicon.svg" inkscape:export-filename="favicon.svg" inkscape:export-xdpi="3.0539608" inkscape:export-ydpi="3.0539608" xmlns:inkscape="http://www.inkscape.org/namespaces/inkscape" xmlns:sodipodi="http://sodipodi.sourceforge.net/DTD/sodipodi-0.dtd" xmlns="http://www.w3.org/2000/svg" xmlns:svg="http://www.w3.org/2000/svg">
  <sodipodi:namedview id="SvgjsSodipodi:namedview1012" pagecolor="#ffffff" bordercolor="#000000" borderopacity="0.25" inkscape:showpageshadow="2" inkscape:pageopacity="0" inkscape:pagecheckerboard="0" inkscape:deskcolor="#d1d1d1" inkscape:document-units="mm" showgrid="false" showguides="true" inkscape:zoom="5.6568544" inkscape:cx="30.140426" inkscape:cy="28.814601" inkscape:window-width="975" inkscape:window-height="1007" inkscape:window-x="0" inkscape:window-y="0" inkscape:window-maximized="0" inkscape:current-layer="layer1"></sodipodi:namedview>
  <defs id="SvgjsDefs1011"></defs>
  <g inkscape:label="Layer 1" inkscape:groupmode="layer" id="SvgjsG1010" transform="translate(-169.67755,-122.85139)">
    <rect style="fill:#333333;stroke-width:0.264583" id="SvgjsRect1009" width="15.484329" height="15.484333" x="169.67755" y="122.85139" ry="2.4516926" transform="translate(-9.5833329e-7)"></rect>
    <path id="SvgjsPath1008" style="fill:#ffffff;fill-opacity:1;stroke:none;stroke-width:0.0346638;stroke-opacity:1" d="m 183.68586,133.54971 c 0,-0.0169 -9e-4,-0.0334 -0.003,-0.0497 -0.002,-0.0163 -0.004,-0.0322 -0.008,-0.0481 -0.003,-0.0159 -0.007,-0.0312 -0.0116,-0.0465 -0.005,-0.0153 -0.0102,-0.0302 -0.0164,-0.0447 -0.006,-0.0146 -0.013,-0.0289 -0.0205,-0.0427 -0.007,-0.0137 -0.0155,-0.0268 -0.0243,-0.0397 -0.009,-0.0129 -0.0181,-0.0257 -0.028,-0.0377 -0.01,-0.012 -0.0199,-0.0234 -0.0309,-0.0343 -0.011,-0.011 -0.0227,-0.0215 -0.0348,-0.0314 -0.012,-0.01 -0.0244,-0.0189 -0.0373,-0.0276 -0.0129,-0.009 -0.0264,-0.0169 -0.0401,-0.0243 -0.0138,-0.007 -0.0277,-0.0144 -0.0423,-0.0206 -0.0145,-0.006 -0.0295,-0.0115 -0.0448,-0.0163 -0.0153,-0.005 -0.0305,-0.009 -0.0464,-0.0117 -0.0159,-0.003 -0.0322,-0.006 -0.0485,-0.008 -0.0163,-0.002 -0.033,-0.003 -0.0497,-0.003 h -2.824 c -0.0169,0 -0.0334,9e-4 -0.0497,0.003 -0.0164,0.002 -0.0328,0.004 -0.0485,0.008 -0.0159,0.003 -0.0312,0.007 -0.0464,0.0117 -0.0153,0.005 -0.0302,0.0102 -0.0447,0.0163 -0.0145,0.006 -0.0285,0.013 -0.0423,0.0206 -0.0138,0.007 -0.0272,0.0155 -0.0401,0.0243 -0.0128,0.009 -0.0253,0.0178 -0.0373,0.0276 -0.012,0.01 -0.0237,0.0205 -0.0348,0.0314 -0.011,0.0109 -0.021,0.0222 -0.0309,0.0343 -0.01,0.012 -0.0193,0.0247 -0.0281,0.0377 -0.009,0.0129 -0.0169,0.026 -0.0243,0.0397 -0.007,0.0138 -0.0143,0.0281 -0.0206,0.0427 -0.006,0.0146 -0.0115,0.0295 -0.0163,0.0447 -0.005,0.0153 -0.009,0.0306 -0.0116,0.0465 -0.003,0.0159 -0.006,0.0316 -0.008,0.0481 -0.002,0.0163 -0.003,0.033 -0.003,0.0497 v 2.82441 c 0,0.0169 8.7e-4,0.0334 0.003,0.0498 0.002,0.0164 0.004,0.0328 0.008,0.0485 0.003,0.0159 0.007,0.0312 0.0116,0.0465 0.005,0.0153 0.0102,0.0302 0.0163,0.0447 0.006,0.0146 0.013,0.0285 0.0206,0.0423 0.007,0.0137 0.0155,0.0272 0.0243,0.0401 0.009,0.0129 0.0181,0.0253 0.0281,0.0373 0.01,0.012 0.0199,0.0234 0.0309,0.0343 0.011,0.011 0.0227,0.0215 0.0348,0.0314 0.012,0.01 0.0244,0.0193 0.0373,0.028 0.013,0.009 0.0264,0.0169 0.0401,0.0243 0.0137,0.007 0.0277,0.0144 0.0423,0.0206 0.0145,0.006 0.0295,0.0115 0.0447,0.0163 0.0153,0.005 0.0306,0.009 0.0464,0.0117 0.0159,0.003 0.0322,0.006 0.0485,0.008 0.0163,0.002 0.033,0.003 0.0497,0.003 h 1.41201 c 1.05118,0 1.89757,-0.84638 1.89757,-1.89758 z"></path>
    <rect style="display:inline;fill:#ffffff;fill-opacity:1;stroke:none;stroke-width:0.0295178;stroke-opacity:1" id="SvgjsRect1007" width="3.794925" height="3.7949259" x="175.52222" y="133.06456" ry="0.48529306" clip-path="none"></rect>
    <path id="SvgjsPath1006" clip-path="none" style="display:inline;fill:#5d8fff;fill-opacity:1;stroke:none;stroke-width:0.0295178;stroke-opacity:1" d="m 171.15357,133.54971 v 1.41241 c 0,0.0329 8.8e-4,0.0655 0.003,0.0978 0.002,0.0323 0.004,0.0647 0.008,0.0966 0.003,0.032 0.007,0.0635 0.0117,0.095 0.005,0.0315 0.0105,0.0628 0.0168,0.0937 0.006,0.0309 0.0135,0.0616 0.0213,0.092 0.008,0.0304 0.0159,0.0606 0.0252,0.0904 0.009,0.0297 0.0196,0.0591 0.0301,0.0882 0.0105,0.0291 0.0219,0.0578 0.0339,0.0861 0.012,0.0284 0.0243,0.0564 0.0377,0.0841 0.0132,0.0276 0.0273,0.0551 0.0419,0.0819 0.0145,0.0269 0.0298,0.0534 0.0456,0.0794 0.0159,0.0262 0.0323,0.0517 0.0493,0.0769 0.0171,0.0253 0.0345,0.0497 0.0527,0.0741 0.0181,0.0244 0.0372,0.0485 0.0565,0.072 0.0193,0.0234 0.0389,0.0462 0.0594,0.0685 0.0204,0.0224 0.0412,0.0447 0.0627,0.0661 0.0214,0.0213 0.0433,0.0423 0.0657,0.0627 0.0224,0.0205 0.0456,0.04 0.069,0.0594 0.0234,0.0193 0.0472,0.0379 0.0716,0.056 0.0244,0.0181 0.0492,0.0361 0.0745,0.0532 0.0253,0.0171 0.0508,0.0335 0.0769,0.0493 0.0262,0.0159 0.0527,0.0306 0.0794,0.0452 0.0269,0.0146 0.0543,0.0285 0.0819,0.0419 0.0276,0.0132 0.0557,0.0261 0.0841,0.0381 0.0284,0.012 0.0571,0.0231 0.0862,0.0339 0.0291,0.0105 0.0585,0.0206 0.0882,0.0297 0.0297,0.009 0.0599,0.0178 0.0902,0.0255 0.0304,0.008 0.0607,0.0151 0.0916,0.0213 0.0309,0.006 0.0623,0.0115 0.0937,0.0163 0.0314,0.005 0.0634,0.009 0.0954,0.0122 0.032,0.003 0.0642,0.006 0.0966,0.008 0.0323,0.002 0.065,0.002 0.0978,0.002 h 1.42036 c 0.26491,-0.004 0.47722,-0.21913 0.47722,-0.48515 v -2.82441 c 0,-0.26884 -0.21673,-0.48516 -0.48558,-0.48516 h -2.82441 c -0.26885,0 -0.48517,0.21632 -0.48517,0.48516 z"></path>
    <rect style="display:inline;fill:#ffffff;fill-opacity:1;stroke:none;stroke-width:0.0295178;stroke-opacity:1" id="SvgjsRect1005" width="3.794925" height="3.7949259" x="179.89078" y="128.696" ry="0.48529306" clip-path="none"></rect>
    <rect style="display:inline;fill:#ffffff;fill-opacity:1;stroke:none;stroke-width:0.0295178;stroke-opacity:1" id="SvgjsRect1004" width="3.794925" height="3.7949259" x="171.15366" y="128.696" ry="0.48529306" inkscape:label="rect8063-47-0-7-8-8-1" clip-path="none"></rect>
    <rect style="display:inline;fill:#5d8fff;fill-opacity:1;stroke:none;stroke-width:0.0295178;stroke-opacity:1" id="SvgjsRect1003" width="3.794925" height="3.7949259" x="175.52222" y="128.696" ry="0.48529306" clip-path="none"></rect>
    <path id="SvgjsPath1002" clip-path="none" style="display:inline;fill:#ffffff;fill-opacity:1;stroke:none;stroke-width:0.0295178;stroke-opacity:1" d="m 183.68586,127.63699 v -1.412 c 0,-0.0657 -0.004,-0.13055 -0.0101,-0.19447 -0.006,-0.064 -0.0159,-0.12718 -0.0284,-0.18906 -0.0126,-0.0618 -0.0284,-0.12244 -0.0468,-0.18193 -0.0184,-0.0595 -0.0397,-0.11763 -0.0636,-0.17441 -0.0238,-0.0568 -0.0503,-0.11226 -0.0794,-0.16604 -0.0291,-0.0539 -0.0609,-0.10597 -0.095,-0.15642 -0.034,-0.0504 -0.0705,-0.0992 -0.10916,-0.14597 -0.0386,-0.0469 -0.0792,-0.0918 -0.12213,-0.13469 -0.0429,-0.0429 -0.0878,-0.084 -0.13468,-0.12253 -0.0468,-0.0386 -0.0955,-0.0748 -0.14596,-0.10875 -0.0504,-0.034 -0.10264,-0.0658 -0.15642,-0.0949 -0.0539,-0.0291 -0.10926,-0.0559 -0.16606,-0.0799 -0.0568,-0.0239 -0.11492,-0.0452 -0.17439,-0.0636 -0.0595,-0.0185 -0.12007,-0.0339 -0.18194,-0.0465 -0.0618,-0.0125 -0.1251,-0.0224 -0.18905,-0.0288 -0.064,-0.006 -0.12878,-0.01 -0.19449,-0.01 h -1.41199 c -0.26885,0 -0.48558,0.21631 -0.48558,0.48516 v 2.82441 c 0,0.26884 0.21673,0.48514 0.48558,0.48514 h 2.824 c 0.26884,0 0.48558,-0.2163 0.48558,-0.48514 z" inkscape:export-filename="favicon.svg" inkscape:export-xdpi="52.491791" inkscape:export-ydpi="52.491791"></path>
    <rect style="display:inline;fill:#ffffff;fill-opacity:1;stroke:none;stroke-width:0.0295178;stroke-opacity:1" id="SvgjsRect1001" width="3.794925" height="3.7949259" x="175.52222" y="124.32743" ry="0.48529306" clip-path="none"></rect>
    <path id="SvgjsPath1000" clip-path="none" style="display:inline;fill:#ffffff;fill-opacity:1;stroke:none;stroke-width:0.0295178;stroke-opacity:1" d="m 173.05115,124.32742 c -0.0657,0 -0.13054,0.003 -0.19448,0.01 -0.0641,0.006 -0.12717,0.0163 -0.18905,0.0288 -0.0619,0.0125 -0.12246,0.028 -0.18194,0.0464 -0.0595,0.0185 -0.11762,0.0397 -0.17442,0.0636 -0.0568,0.0239 -0.11224,0.0507 -0.16603,0.0799 -0.0539,0.0291 -0.10597,0.0609 -0.15643,0.095 -0.0504,0.034 -0.0992,0.0701 -0.14596,0.10875 -0.0468,0.0386 -0.0918,0.0796 -0.13467,0.12253 -0.0428,0.0429 -0.0835,0.0878 -0.12212,0.13468 -0.0386,0.0468 -0.0751,0.0955 -0.10918,0.14597 -0.034,0.0504 -0.0657,0.10264 -0.0949,0.15642 -0.0291,0.0539 -0.0556,0.10926 -0.0794,0.16605 -0.0239,0.0568 -0.0456,0.11492 -0.0641,0.1744 -0.0184,0.0595 -0.0339,0.12006 -0.0464,0.18194 -0.0125,0.0618 -0.022,0.1251 -0.0284,0.18905 -0.006,0.0639 -0.0101,0.12878 -0.0101,0.19449 v 1.41198 c 0,0.26886 0.21632,0.48517 0.48517,0.48517 h 2.8244 c 0.26885,0 0.48559,-0.21631 0.48559,-0.48517 v -2.8244 c 0,-0.26885 -0.21674,-0.48516 -0.48559,-0.48516 z"></path>
  </g>
</svg><style>@media (prefers-color-scheme: light) { :root { filter: none; } }
@media (prefers-color-scheme: dark) { :root { filter: none; } }
</style></svg>