<?xml version="1.0" encoding="UTF-8" standalone="no"?>
<!-- Created with Inkscape (http://www.inkscape.org/) -->

<svg
   width="92.318237mm"
   height="30.344406mm"
   viewBox="0 0 92.318237 30.344405"
   version="1.1"
   id="svg5"
   inkscape:version="1.2.2 (b0a8486541, 2022-12-01)"
   sodipodi:docname="logo.svg"
   inkscape:export-filename="favicon.svg"
   inkscape:export-xdpi="3.0539608"
   inkscape:export-ydpi="3.0539608"
   xmlns:inkscape="http://www.inkscape.org/namespaces/inkscape"
   xmlns:sodipodi="http://sodipodi.sourceforge.net/DTD/sodipodi-0.dtd"
   xmlns="http://www.w3.org/2000/svg"
   xmlns:svg="http://www.w3.org/2000/svg">
  <sodipodi:namedview
     id="namedview7"
     pagecolor="#000000"
     bordercolor="#000000"
     borderopacity="0.25"
     inkscape:showpageshadow="2"
     inkscape:pageopacity="0"
     inkscape:pagecheckerboard="false"
     inkscape:deskcolor="#d1d1d1"
     inkscape:document-units="mm"
     showgrid="false"
     showguides="true"
     inkscape:zoom="1.4142136"
     inkscape:cx="142.48201"
     inkscape:cy="-19.798989"
     inkscape:window-width="975"
     inkscape:window-height="1007"
     inkscape:window-x="0"
     inkscape:window-y="0"
     inkscape:window-maximized="0"
     inkscape:current-layer="svg5" />
  <defs
     id="defs2">
    <rect
       x="0"
       y="0"
       width="678.63674"
       height="185.06758"
       id="rect1005" />
    <clipPath
       clipPathUnits="userSpaceOnUse"
       id="clipPath11573">
      <g
         id="g11593"
         style="display:inline"
         inkscape:label="g11124">
        <rect
           style="fill:#ffffff;fill-opacity:1;stroke:none;stroke-width:0.225305;stroke-opacity:1"
           id="rect11575"
           width="28.966064"
           height="28.966064"
           x="32.042923"
           y="127.53604"
           ry="0" />
        <rect
           style="fill:#ffffff;fill-opacity:1;stroke:none;stroke-width:0.225305;stroke-opacity:1"
           id="rect11577"
           width="28.966064"
           height="28.966064"
           x="98.732193"
           y="127.53604"
           ry="0" />
        <rect
           style="fill:#ffffff;fill-opacity:1;stroke:none;stroke-width:0.225305;stroke-opacity:1"
           id="rect11579"
           width="28.966064"
           height="28.966064"
           x="65.387558"
           y="127.53604"
           ry="0" />
        <rect
           style="fill:#ffffff;fill-opacity:1;stroke:none;stroke-width:0.225305;stroke-opacity:1"
           id="rect11581"
           width="28.966064"
           height="28.966064"
           x="32.042923"
           y="160.88068"
           ry="0" />
        <rect
           style="fill:#ffffff;fill-opacity:1;stroke:none;stroke-width:0.225305;stroke-opacity:1"
           id="rect11583"
           width="28.966064"
           height="28.966064"
           x="65.387558"
           y="160.88068"
           ry="0" />
        <rect
           style="fill:#ffffff;fill-opacity:1;stroke:none;stroke-width:0.225305;stroke-opacity:1"
           id="rect11585"
           width="28.966064"
           height="28.966064"
           x="98.732193"
           y="160.88068"
           ry="0" />
        <rect
           style="fill:#ffffff;fill-opacity:1;stroke:none;stroke-width:0.225305;stroke-opacity:1"
           id="rect11587"
           width="28.966064"
           height="28.966064"
           x="98.732193"
           y="94.191406"
           ry="0" />
        <rect
           style="fill:#ffffff;fill-opacity:1;stroke:none;stroke-width:0.225305;stroke-opacity:1"
           id="rect11589"
           width="28.966064"
           height="28.966064"
           x="65.387558"
           y="94.191406"
           ry="0" />
        <rect
           style="fill:#ffffff;fill-opacity:1;stroke:none;stroke-width:0.225305;stroke-opacity:1"
           id="rect11591"
           width="28.966064"
           height="28.966064"
           x="32.042923"
           y="94.191406"
           ry="0" />
      </g>
    </clipPath>
    <rect
       x="0"
       y="0"
       width="142.83554"
       height="134.63964"
       id="rect1005-3" />
  </defs>
  <g
     inkscape:label="Layer 1"
     inkscape:groupmode="layer"
     id="layer1"
     transform="translate(-92.843479,-122.8514)">
    <path
       id="rect1828"
       style="fill:#ffffff;fill-opacity:1;stroke:none;stroke-width:0.264583;stroke-opacity:1"
       d="M 127.69924 164.58371 C 127.69924 164.45546 127.69268 164.32865 127.68008 164.20382 C 127.66748 164.07899 127.64721 163.95748 127.62262 163.83669 C 127.59803 163.71591 127.5692 163.59847 127.53323 163.48234 C 127.49726 163.36621 127.45546 163.25162 127.40873 163.14075 C 127.36199 163.02989 127.30919 162.92012 127.2523 162.81513 C 127.19541 162.71014 127.13358 162.61035 127.06714 162.51185 C 127.00071 162.41335 126.92862 162.31594 126.85325 162.22454 C 126.77788 162.13313 126.7007 162.04645 126.61701 161.96276 C 126.53332 161.87907 126.44345 161.7987 126.35205 161.72333 C 126.26064 161.64796 126.16642 161.57907 126.06792 161.51263 C 125.96942 161.4462 125.86644 161.38437 125.76145 161.32747 C 125.65646 161.27058 125.54989 161.21778 125.43902 161.17105 C 125.32816 161.12431 125.21356 161.08251 125.09743 161.04654 C 124.98131 161.01057 124.86386 160.98175 124.74308 160.95716 C 124.6223 160.93256 124.49759 160.91229 124.37276 160.89969 C 124.24794 160.88709 124.12112 160.88054 123.99287 160.88054 L 102.43782 160.88054 C 102.30956 160.88054 102.18275 160.88709 102.05793 160.89969 C 101.9331 160.91229 101.80839 160.93256 101.68761 160.95716 C 101.56683 160.98175 101.44938 161.01057 101.33325 161.04654 C 101.21712 161.08251 101.10253 161.12431 100.99167 161.17105 C 100.8808 161.21778 100.77422 161.27058 100.66923 161.32747 C 100.56425 161.38437 100.46127 161.4462 100.36277 161.51263 C 100.26426 161.57907 100.17004 161.64796 100.07864 161.72333 C 99.987241 161.7987 99.897364 161.87907 99.813673 161.96276 C 99.729982 162.04645 99.652805 162.13313 99.577436 162.22454 C 99.502067 162.31594 99.429982 162.41335 99.363546 162.51185 C 99.29711 162.61035 99.235279 162.71014 99.178387 162.81513 C 99.121495 162.92012 99.068696 163.02989 99.02196 163.14075 C 98.975224 163.25162 98.933425 163.36621 98.897456 163.48234 C 98.861487 163.59847 98.83266 163.71591 98.808069 163.83669 C 98.783479 163.95748 98.763207 164.07899 98.750606 164.20382 C 98.738005 164.32865 98.731452 164.45546 98.731452 164.58371 L 98.731452 186.14195 C 98.731452 186.2702 98.738005 186.39702 98.750606 186.52184 C 98.763207 186.64667 98.783479 186.77138 98.808069 186.89216 C 98.83266 187.01294 98.861487 187.13039 98.897456 187.24652 C 98.933425 187.36265 98.975224 187.47724 99.02196 187.5881 C 99.068696 187.69897 99.121495 187.80555 99.178387 187.91053 C 99.235279 188.01552 99.29711 188.1185 99.363546 188.217 C 99.429982 188.3155 99.502067 188.40973 99.577436 188.50113 C 99.652805 188.59253 99.729982 188.67921 99.813673 188.7629 C 99.897364 188.84659 99.987241 188.92696 100.07864 189.00233 C 100.17004 189.0777 100.26426 189.14979 100.36277 189.21622 C 100.46127 189.28266 100.56425 189.34449 100.66923 189.40138 C 100.77422 189.45827 100.8808 189.51107 100.99167 189.55781 C 101.10253 189.60454 101.21712 189.64634 101.33325 189.68231 C 101.44938 189.71828 101.56683 189.74711 101.68761 189.7717 C 101.80839 189.79629 101.9331 189.81656 102.05793 189.82916 C 102.18275 189.84176 102.30956 189.84832 102.43782 189.84832 L 113.21534 189.84832 C 121.23893 189.84832 127.69924 183.38802 127.69924 175.36443 L 127.69924 164.58371 z "
       transform="matrix(0.1618736,0,0,0.16187363,164.49074,107.60429)" />
    <rect
       style="display:inline;fill:#ffffff;fill-opacity:1;stroke:none;stroke-width:0.225305;stroke-opacity:1"
       id="rect8063-47-0-7-8-8-15"
       width="28.966064"
       height="28.966064"
       x="65.387566"
       y="160.88068"
       ry="3.7041647"
       clip-path="none"
       transform="matrix(0.1618736,0,0,0.16187363,164.49074,107.60429)" />
    <path
       id="path2456"
       clip-path="none"
       style="display:inline;fill:#5d8fff;fill-opacity:1;stroke:none;stroke-width:0.225305;stroke-opacity:1"
       d="M 32.042339 164.58371 L 32.042339 175.36443 C 32.042339 175.61516 32.049027 175.86391 32.061494 176.11145 C 32.07396 176.35898 32.094322 176.60486 32.118957 176.84889 C 32.143591 177.09292 32.17184 177.33334 32.208344 177.57356 C 32.244848 177.81379 32.287966 178.05253 32.33604 178.28866 C 32.384114 178.52479 32.439506 178.75926 32.498852 178.99099 C 32.558197 179.22271 32.620077 179.45351 32.690395 179.68054 C 32.760714 179.90757 32.839255 180.13211 32.920248 180.35414 C 33.00124 180.57617 33.087464 180.79504 33.178832 181.01177 C 33.270199 181.22851 33.364703 181.4423 33.466147 181.65344 C 33.567591 181.86458 33.674165 182.0739 33.785387 182.27915 C 33.896608 182.4844 34.012657 182.68665 34.133357 182.88571 C 34.254058 183.08476 34.38018 183.28054 34.51006 183.47311 C 34.63994 183.66567 34.77354 183.85239 34.912302 184.03816 C 35.051063 184.22394 35.195931 184.40857 35.343275 184.58725 C 35.490619 184.76594 35.640967 184.93951 35.796595 185.1108 C 35.952223 185.2821 36.111841 185.45159 36.275454 185.6152 C 36.439067 185.77882 36.605361 185.93843 36.77666 186.09406 C 36.947959 186.24969 37.124719 186.40004 37.303405 186.54738 C 37.482091 186.69473 37.663529 186.8364 37.849304 186.97516 C 38.035079 187.11392 38.224986 187.25072 38.41755 187.3806 C 38.610115 187.51048 38.805895 187.6366 39.004951 187.7573 C 39.204007 187.878 39.406258 187.99086 39.611506 188.10208 C 39.816754 188.2133 40.026074 188.31987 40.237215 188.42132 C 40.448356 188.52276 40.66215 188.62046 40.878886 188.71182 C 41.095622 188.80319 41.314487 188.88942 41.536519 188.97041 C 41.758551 189.0514 41.983086 189.12675 42.210115 189.19707 C 42.437144 189.26739 42.667944 189.33246 42.899672 189.3918 C 43.131399 189.45115 43.362679 189.50654 43.598806 189.55462 C 43.834933 189.60269 44.073675 189.64262 44.313902 189.67912 C 44.55413 189.71562 44.797738 189.74706 45.041768 189.7717 C 45.285798 189.79633 45.531678 189.8167 45.779211 189.82916 C 46.026744 189.84163 46.275494 189.84512 46.526231 189.84512 L 57.367602 189.84512 C 59.389699 189.81092 61.010123 188.1725 61.010123 186.14195 L 61.010123 164.58371 C 61.010123 162.53161 59.355859 160.88054 57.303754 160.88054 L 35.745516 160.88054 C 33.693411 160.88054 32.042339 162.53161 32.042339 164.58371 z "
       transform="matrix(0.1618736,0,0,0.16187363,164.49074,107.60429)" />
    <rect
       style="display:inline;fill:#ffffff;fill-opacity:1;stroke:none;stroke-width:0.225305;stroke-opacity:1"
       id="rect8063-47-0-7-8-8-5"
       width="28.966064"
       height="28.966064"
       x="98.732201"
       y="127.53604"
       ry="3.7041647"
       clip-path="none"
       transform="matrix(0.1618736,0,0,0.16187363,164.49074,107.60429)" />
    <rect
       style="display:inline;fill:#ffffff;fill-opacity:1;stroke:none;stroke-width:0.225305;stroke-opacity:1"
       id="rect8063-47-0-7-8-8-1"
       width="28.966064"
       height="28.966064"
       x="32.042923"
       y="127.53604"
       ry="3.7041647"
       inkscape:label="rect8063-47-0-7-8-8-1"
       clip-path="none"
       transform="matrix(0.1618736,0,0,0.16187363,164.49074,107.60429)" />
    <rect
       style="display:inline;fill:#5d8fff;fill-opacity:1;stroke:none;stroke-width:0.225305;stroke-opacity:1"
       id="rect8063-47-0-7-8-8"
       width="28.966064"
       height="28.966064"
       x="65.387566"
       y="127.53604"
       ry="3.7041647"
       clip-path="none"
       transform="matrix(0.1618736,0,0,0.16187363,164.49074,107.60429)" />
    <path
       id="path2473"
       clip-path="none"
       style="display:inline;fill:#ffffff;fill-opacity:1;stroke:none;stroke-width:0.225305;stroke-opacity:1"
       d="M 127.69924 119.45285 L 127.69924 108.67533 C 127.69924 108.17385 127.67189 107.67892 127.62262 107.19086 C 127.57335 106.70281 127.50168 106.22016 127.40554 105.7479 C 127.30939 105.27565 127.18862 104.81327 127.04799 104.35921 C 126.90735 103.90515 126.74548 103.46146 126.56274 103.02798 C 126.38001 102.59451 126.17863 102.1711 125.95619 101.7606 C 125.73375 101.35011 125.49128 100.95178 125.23152 100.56665 C 124.97175 100.18152 124.69299 99.809875 124.3983 99.452503 C 124.10361 99.09513 123.79335 98.751777 123.46612 98.424552 C 123.1389 98.097326 122.79554 97.783869 122.43817 97.489181 C 122.0808 97.194492 121.70915 96.918919 121.32402 96.659158 C 120.9389 96.399398 120.54057 96.156928 120.13007 95.934485 C 119.71957 95.712042 119.29616 95.507473 118.86269 95.324738 C 118.42922 95.142003 117.98552 94.980131 117.53146 94.839494 C 117.0774 94.698857 116.61502 94.581286 116.14277 94.485138 C 115.67052 94.38899 115.18787 94.314132 114.69981 94.264863 C 114.21175 94.215594 113.71682 94.191438 113.21534 94.191438 L 102.43782 94.191438 C 100.38572 94.191438 98.731452 95.842509 98.731452 97.894615 L 98.731452 119.45285 C 98.731452 121.50495 100.38572 123.15602 102.43782 123.15602 L 123.99287 123.15602 C 126.04497 123.15602 127.69924 121.50495 127.69924 119.45285 z "
       transform="matrix(0.1618736,0,0,0.16187363,164.49074,107.60429)" />
    <rect
       style="display:inline;fill:#ffffff;fill-opacity:1;stroke:none;stroke-width:0.225305;stroke-opacity:1"
       id="rect8063-47-0-7-8-8-9"
       width="28.966064"
       height="28.966064"
       x="65.387558"
       y="94.191406"
       ry="3.7041647"
       clip-path="none"
       transform="matrix(0.1618736,0,0,0.16187363,164.49074,107.60429)" />
    <path
       id="rect8063-47-0-7-8-8-8"
       clip-path="none"
       style="display:inline;fill:#ffffff;fill-opacity:1;stroke:none;stroke-width:0.225305;stroke-opacity:1"
       d="M 46.526231 94.191438 C 46.024757 94.191438 45.529827 94.215594 45.041768 94.264863 C 44.553709 94.314132 44.07106 94.38899 43.598806 94.485138 C 43.126552 94.581286 42.664172 94.698857 42.210115 94.839494 C 41.756057 94.980131 41.312358 95.142003 40.878886 95.324738 C 40.445414 95.507473 40.022001 95.712042 39.611506 95.934485 C 39.20101 96.156928 38.80268 96.399398 38.41755 96.659158 C 38.032421 96.918919 37.660777 97.194492 37.303405 97.489181 C 36.946032 97.783869 36.602679 98.097326 36.275454 98.424552 C 35.948228 98.751777 35.637963 99.09513 35.343275 99.452503 C 35.048587 99.809875 34.769821 100.18152 34.51006 100.56665 C 34.250299 100.95178 34.007829 101.35011 33.785387 101.7606 C 33.562944 102.1711 33.361567 102.59451 33.178832 103.02798 C 32.996097 103.46146 32.831032 103.90515 32.690395 104.35921 C 32.549759 104.81327 32.432188 105.27565 32.33604 105.7479 C 32.239892 106.22016 32.168226 106.70281 32.118957 107.19086 C 32.069688 107.67892 32.042339 108.17385 32.042339 108.67533 L 32.042339 119.45285 C 32.042339 121.50495 33.693411 123.15602 35.745516 123.15602 L 57.303754 123.15602 C 59.355859 123.15602 61.010123 121.50495 61.010123 119.45285 L 61.010123 97.894615 C 61.010123 95.842509 59.355859 94.191438 57.303754 94.191438 L 46.526231 94.191438 z "
       transform="matrix(0.1618736,0,0,0.16187363,164.49074,107.60429)" />
  </g>
  <g
     aria-label="KU"
     transform="matrix(0.26458333,0,0,0.26458333,65.920534,16.049115)"
     id="text1003-6"
     style="font-size:66.6667px;font-family:Koulen;-inkscape-font-specification:Koulen;text-align:center;white-space:pre;shape-inside:url(#rect1005-3);display:inline;fill:#ffffff">
    <path
       d="m 50.910145,53.378407 h -7.552087 q -0.260417,0 -0.260417,-0.325521 L 43.22785,7.3171844 q 0,-0.325521 0.260416,-0.325521 h 7.486983 q 0.260417,0 0.260417,0.325521 V 23.104953 L 61.684891,7.2520802 q 0.260416,-0.2604168 0.488281,-0.2604168 h 7.649744 q 0.292969,0 0.130208,0.2604168 L 58.429681,25.644017 71.352865,53.11799 q 0.16276,0.260417 -0.325521,0.260417 h -8.138026 q -0.325521,0 -0.390625,-0.260417 l -9.016932,-19.596365 -2.311199,3.645836 v 15.885425 q 0,0.325521 -0.260417,0.325521 z"
       id="path322" />
    <path
       d="m 86.6198,54.029449 q -3.515627,0 -6.51042,-1.822918 -2.994793,-1.822917 -4.785159,-4.882815 -1.757813,-3.092449 -1.757813,-6.738285 L 73.696616,7.2520802 q 0,-0.2604168 0.260417,-0.2604168 h 7.486983 q 0.260417,0 0.260417,0.2604168 V 40.585431 q 0,2.246095 1.432292,3.841148 1.432293,1.562501 3.483075,1.562501 2.148439,0 3.580731,-1.562501 1.432293,-1.595053 1.432293,-3.841148 V 7.2520802 q 0,-0.2604168 0.260417,-0.2604168 h 7.486983 q 0.260417,0 0.260417,0.2604168 l 0.130208,33.3333508 q 0,3.678388 -1.757813,6.770837 -1.790366,3.059898 -4.752607,4.882815 -2.962241,1.790366 -6.640629,1.790366 z"
       id="path324" />
  </g>
  <g
     aria-label="SUDO"
     transform="matrix(0.26458333,0,0,0.26458333,-51.754463,-4.338418)"
     id="text1003"
     style="font-size:160px;font-family:Koulen;-inkscape-font-specification:Koulen;text-align:center;white-space:pre;shape-inside:url(#rect1005);shape-padding:1.41421;display:inline;fill:#ffffff"
     inkscape:label="text1003">
    <path
       d="m 226.93555,131.08467 q -8.51563,0 -15.70313,-4.375 -7.10937,-4.375 -11.40625,-11.64062 -4.21875,-7.34375 -4.21875,-16.093754 v -7.34375 q 0,-0.859375 0.78125,-0.859375 h 17.96875 q 0.625,0 0.625,0.859375 v 7.34375 q 0,5.234374 3.51563,9.062504 3.51562,3.75 8.4375,3.75 5,0 8.51562,-3.82813 3.51563,-3.90625 3.51563,-8.984374 0,-5.859375 -7.65625,-10.234375 -1.25,-0.78125 -3.28125,-1.875 -1.95313,-1.171875 -4.6875,-2.65625 -2.73438,-1.484375 -5.3125,-2.890625 -2.57813,-1.484375 -5,-2.8125 -8.75,-5.15625 -13.04688,-12.890625 -4.21875,-7.8125 -4.21875,-17.5 0,-8.90625 4.375,-16.09375 4.375,-7.109375 11.40625,-11.25 7.10938,-4.21875 15.39063,-4.21875 8.51562,0 15.625,4.21875 7.10937,4.296875 11.32812,11.40625 4.29688,7.109375 4.29688,15.9375 v 13.125 q 0,0.625 -0.625,0.625 H 239.5918 q -0.625,0 -0.625,-0.625 l -0.15625,-13.125 q 0,-5.625 -3.51563,-9.140625 -3.51562,-3.515625 -8.35937,-3.515625 -4.92188,0 -8.4375,3.75 -3.51563,3.75 -3.51563,8.90625 0,5.234375 2.1875,8.75 2.26563,3.515625 8.20313,6.71875 0.625,0.3125 2.89062,1.5625 2.26563,1.25 5,2.8125 2.8125,1.484375 5.07813,2.734375 2.26562,1.171875 2.73437,1.40625 7.96875,4.453125 12.57813,10.9375 4.6875,6.484375 4.6875,15.9375 0,9.140624 -4.21875,16.406254 -4.29688,7.26562 -11.40625,11.48437 -7.10938,4.21875 -15.78125,4.21875 z"
       id="path313" />
    <path
       d="m 298.88867,131.08467 q -8.4375,0 -15.625,-4.375 -7.1875,-4.375 -11.48437,-11.71875 -4.21875,-7.42187 -4.21875,-16.171874 l 0.3125,-80 q 0,-0.625 0.625,-0.625 h 17.96875 q 0.625,0 0.625,0.625 v 80 q 0,5.390624 3.4375,9.218754 3.4375,3.75 8.35937,3.75 5.15625,0 8.59375,-3.75 3.4375,-3.82813 3.4375,-9.218754 v -80 q 0,-0.625 0.625,-0.625 h 17.96875 q 0.625,0 0.625,0.625 l 0.3125,80 q 0,8.828124 -4.21875,16.250004 -4.29687,7.34375 -11.40625,11.71875 -7.10937,4.29687 -15.9375,4.29687 z"
       id="path315" />
    <path
       d="m 372.48242,129.36592 -28.67187,0.15625 q -0.78125,0 -0.78125,-0.78125 l 0.3125,-109.921874 q 0,-0.625 0.625,-0.625 l 29.92187,-0.15625 q 8.90625,-0.234375 16.09375,4.0625 7.26563,4.296875 11.5625,11.640625 4.375,7.265625 4.375,16.09375 v 45.9375 q 0,9.218749 -4.45312,16.874999 -4.53125,7.57813 -12.03125,12.10938 -7.5,4.45312 -16.95313,4.60937 z m 1.40625,-92.187499 -11.17187,0.15625 -0.15625,72.499999 h 9.92187 q 5.9375,0 10,-4.14062 4.0625,-4.14063 4.0625,-9.921879 v -46.09375 q 0,-5.078125 -3.75,-8.828125 -3.75,-3.828125 -8.90625,-3.671875 z"
       id="path317" />
    <path
       d="m 448.10742,131.08467 q -8.51562,0 -15.70312,-4.375 -7.10938,-4.375 -11.48438,-11.64062 -4.29687,-7.34375 -4.29687,-16.093754 l 0.15625,-50.703125 q 0,-8.90625 4.29687,-16.015625 4.21875,-7.1875 11.40625,-11.484375 7.1875,-4.375 15.625,-4.375 8.75,0 15.70313,4.296875 7.03125,4.296875 11.25,11.5625 4.29687,7.1875 4.29687,16.015625 l 0.15625,50.703125 q 0,8.750004 -4.21875,16.015624 -4.29687,7.34375 -11.40625,11.71875 -7.10937,4.375 -15.78125,4.375 z m 0,-19.29687 q 4.84375,0 8.4375,-3.90625 3.59375,-3.98438 3.59375,-8.906254 l -0.15625,-50.703125 q 0,-5.3125 -3.35937,-8.984375 -3.35938,-3.671875 -8.51563,-3.671875 -4.92187,0 -8.4375,3.59375 -3.51562,3.59375 -3.51562,9.0625 v 50.703125 q 0,5.234374 3.51562,9.062504 3.51563,3.75 8.4375,3.75 z"
       id="path319" />
  </g>
</svg>
