<?xml version="1.0" standalone="no"?>
<!DOCTYPE svg PUBLIC "-//W3C//DTD SVG 20010904//EN"
 "http://www.w3.org/TR/2001/REC-SVG-20010904/DTD/svg10.dtd">
<svg version="1.0" xmlns="http://www.w3.org/2000/svg"
 width="700.000000pt" height="700.000000pt" viewBox="0 0 700.000000 700.000000"
 preserveAspectRatio="xMidYMid meet">
<metadata>
Created by potrace 1.14, written by Peter Selinger 2001-2017
</metadata>
<g transform="translate(0.000000,700.000000) scale(0.100000,-0.100000)"
fill="#000000" stroke="none">
<path d="M858 6980 c-113 -23 -145 -34 -253 -85 -98 -45 -194 -110 -265 -177
-66 -62 -190 -214 -190 -232 0 -3 -13 -27 -28 -53 -28 -47 -77 -174 -88 -223
-31 -150 -32 -186 -33 -752 l-2 -578 1061 0 1060 0 0 1060 0 1061 -587 -2
c-525 -1 -597 -3 -675 -19z"/>
<path d="M2440 5940 l0 -1060 1060 0 1060 0 0 1060 0 1060 -1060 0 -1060 0 0
-1060z"/>
<path d="M4880 5941 l0 -1061 1061 0 1060 0 -4 603 c-2 331 -7 618 -11 637
-29 139 -99 318 -160 405 -66 96 -152 186 -246 259 -50 39 -174 116 -186 116
-3 0 -25 9 -48 20 -38 17 -130 45 -221 66 -16 4 -303 9 -637 11 l-608 4 0
-1060z"/>
<path d="M0 3500 l0 -1060 1060 0 1060 0 0 1060 0 1060 -1060 0 -1060 0 0
-1060z"/>
<path d="M2440 3500 l0 -1060 1060 0 1060 0 0 1060 0 1060 -1060 0 -1060 0 0
-1060z"/>
<path d="M4880 3500 l0 -1060 1060 0 1060 0 0 1060 0 1060 -1060 0 -1060 0 0
-1060z"/>
<path d="M2 1508 l4 -613 27 -98 c101 -376 375 -652 757 -763 l95 -28 618 -4
617 -3 0 1060 0 1061 -1061 0 -1060 0 3 -612z"/>
<path d="M2440 1060 l0 -1060 1060 0 1060 0 0 1060 0 1060 -1060 0 -1060 0 0
-1060z"/>
<path d="M4880 1060 l0 -1061 603 4 c331 2 618 7 637 11 75 16 156 37 175 46
11 5 49 22 85 37 87 39 120 58 201 120 80 61 107 87 176 168 94 111 174 270
215 427 21 80 22 105 25 696 l4 612 -1060 0 -1061 0 0 -1060z"/>
</g>
</svg>
